<svg height="426pt" viewBox="0 -1 426.3847 426" width="426pt" xmlns="http://www.w3.org/2000/svg"><path d="m103.679688 195.71875c-2.117188 0-4.199219-.980469-5.535157-2.820312l-96.847656-133.683594c-1.964844-2.722656-1.667969-6.464844.703125-8.835938l48.1875-48.1875c2.355469-2.371094 6.113281-2.671875 8.828125-.699218l133.6875 96.847656c3.054687 2.210937 3.738281 6.480468 1.527344 9.535156-2.214844 3.046875-6.472657 3.746094-9.535157 1.515625l-128.972656-93.425781-39.953125 39.953125 93.433594 128.96875c2.207031 3.054687 1.523437 7.320312-1.527344 9.53125-1.210937.882812-2.609375 1.300781-3.996093 1.300781zm-30.84375-95.121094c-6.730469 0-13.457032-2.558594-18.578126-7.679687-4.960937-4.957031-7.695312-11.558594-7.695312-18.578125 0-7.015625 2.734375-13.617188 7.695312-18.578125 10.234376-10.238281 26.90625-10.246094 37.160157 0 10.246093 10.246093 10.246093 26.914062 0 37.160156-5.125 5.117187-11.855469 7.675781-18.582031 7.675781zm13.753906-12.503906h.066406zm-13.753906-26.367188c-3.230469 0-6.46875 1.222657-8.925782 3.683594-2.382812 2.386719-3.695312 5.554688-3.695312 8.925782 0 3.375 1.3125 6.542968 3.695312 8.925781 4.917969 4.921875 12.925782 4.921875 17.851563 0 2.382812-2.382813 3.699219-5.550781 3.699219-8.925781 0-3.371094-1.316407-6.539063-3.699219-8.925782-2.464844-2.457031-5.691407-3.683594-8.925781-3.683594zm0 0"/><path d="m109.511719 116.53125c-1.792969 0-3.535157-.703125-4.828125-2l-20.957032-20.960938c-2.667968-2.664062-2.667968-6.984374 0-9.652343 2.664063-2.664063 6.984376-2.664063 9.652344 0l15.160156 15.167969c3.203126-3.554688 8.074219-7.535157 15.207032-10.347657 17.273437-6.785156 40.074218-3.800781 67.796875 8.917969 3.425781 1.574219 4.929687 5.625 3.355469 9.054688-1.574219 3.425781-5.625 4.917968-9.050782 3.355468-30.164062-13.847656-47.707031-12.335937-57.097656-8.625-9.671875 3.8125-12.902344 10.789063-12.933594 10.855469-.867187 2.113281-2.734375 3.652344-4.972656 4.101563-.4375.085937-.886719.132812-1.332031.132812zm0 0"/><path d="m376.789062 298.398438c-.421874 0-.84375-.039063-1.265624-.117188-2.929688-.554688-9.621094-1.8125-10.597657-8.359375-69.554687-113.769531-185.441406-105.394531-186.589843-105.304687-2.023438.242187-3.988282-.558594-5.414063-1.984376l-26.054687-26.203124c-2.488282-2.496094-2.660157-6.492188-.394532-9.195313l52.671875-62.875c1.222657-1.453125 2.996094-2.34375 4.898438-2.433594 1.980469-.121093 3.753906.621094 5.113281 1.9375l26.75 26.203125c2.632812 2.578125 2.742188 6.769532.257812 9.484375l-2.511718 2.746094c59.882812 7.136719 108.128906 45.792969 147.839844 83.425781 1.355468 1.289063 2.128906 3.078125 2.128906 4.953125v80.894531c0 2.03125-.90625 3.957032-2.472656 5.25-1.238282 1.03125-2.789063 1.578126-4.359376 1.578126zm-192.917968-127.566407c25.984375 0 121.886718 6.765625 186.089844 101.679688v-58.894531c-40.5625-38.164063-90.125-76.785157-151.042969-78.75-2.664063-.078126-5.039063-1.714844-6.070313-4.167969-1.035156-2.460938-.546875-5.296875 1.253906-7.261719l7.53125-8.230469-16.765624-16.421875-43.929688 52.441406 19.539062 19.648438c.941407-.027344 2.082032-.042969 3.394532-.042969zm0 0"/><path d="m393.296875 306.453125c-1.011719 0-2.027344-.054687-3.035156-.152344-8.085938-.796875-15.066407-4.792969-19.160157-10.945312-.75-1.121094-1.144531-2.433594-1.144531-3.78125v-80.894531c0-2.945313 1.886719-5.554688 4.683594-6.480469 2.785156-.914063 5.867187.050781 7.621094 2.410156 6.664062 8.964844 13.808593 17.632813 20.714843 26.019531 6.886719 8.34375 13.386719 16.230469 17.976563 22.777344 8.769531 12.523438 6.746094 29.996094-4.808594 41.554688-6.054687 6.058593-14.417969 9.492187-22.847656 9.492187zm-9.683594-17.261719c1.917969 1.941406 4.738281 3.203125 8 3.519532 5.40625.566406 10.957031-1.488282 14.878907-5.40625 6.867187-6.859376 8.246093-16.980469 3.285156-24.058594-4.285156-6.113282-10.617188-13.800782-17.328125-21.941406-2.824219-3.425782-5.8125-7.046876-8.835938-10.785157zm0 0"/><path d="m273.988281 424.238281c-6.511719 0-13.082031-1.953125-18.777343-5.953125-6.472657-4.53125-14.210938-11.066406-22.40625-17.980468-8.105469-6.839844-17.292969-14.59375-26.390626-21.355469-2.363281-1.753907-3.339843-4.824219-2.410156-7.625.925782-2.792969 3.535156-4.679688 6.480469-4.679688h80.890625c1.347656 0 2.660156.398438 3.777344 1.140625 6.097656 4.058594 10.082031 11.28125 10.933594 19.820313 1.015624 10.1875-2.46875 20.363281-9.320313 27.214843-6.226563 6.226563-14.460937 9.417969-22.777344 9.417969zm-10.9375-17.125c7.523438 5.273438 17.644531 4.460938 24.0625-1.945312 3.925781-3.933594 5.992188-10.140625 5.390625-16.207031-.359375-3.585938-1.652344-6.6875-3.550781-8.660157h-58.78125c3.964844 3.265625 7.804687 6.507813 11.4375 9.570313 7.957031 6.707031 15.46875 13.054687 21.441406 17.242187zm0 0"/><path d="m291.375 380.296875h-80.890625c-1.875 0-3.667969-.773437-4.953125-2.132813-39.367188-41.53125-76.261719-87.804687-83.363281-145.625l-2.675781 2.585938c-2.679688 2.582031-6.941407 2.546875-9.570313-.085938l-26.195313-26.199218c-1.355468-1.359375-2.078124-3.21875-1.996093-5.140625.089843-1.917969.980469-3.707031 2.460937-4.933594l62.871094-52.277344c2.714844-2.265625 6.703125-2.085937 9.199219.433594l26.199219 26.3125c1.410156 1.414063 2.128906 3.394531 1.964843 5.386719-.097656 1.152344-8.21875 115.933594 106.25 185.253906 1.640625.992188 2.796875 2.355469 3.636719 3.351562.039062.046876.074219.089844.113281.140626 2.238281 1.117187 3.773438 3.433593 3.773438 6.105468.003906 3.773438-3.050781 6.824219-6.824219 6.824219zm-77.949219-13.652344h56.4375c-97.257812-67.066406-99.6875-166.652343-99.195312-185.90625l-19.679688-19.765625-52.316406 43.507813 16.164063 16.167969 8.273437-7.988282c1.945313-1.875 4.8125-2.40625 7.308594-1.414062 2.496093 1.015625 4.167969 3.40625 4.253906 6.105468 1.910156 59.242188 38.726563 106.789063 78.753906 149.292969zm0 0"/></svg>